<svg xmlns="http://www.w3.org/2000/svg" width="128" height="128" viewBox="0 0 128 128" role="img" aria-labelledby="iconTitle">
  <title id="iconTitle">MyRecipes icon (list, thin plate, 3-prong fork, knife, pencil)</title>

  <!-- outer circle background -->
  <circle cx="64" cy="64" r="62" fill="#FFEDD5" stroke="#FFB86C" stroke-width="4"/>

  <!-- list lines on the left -->
  <g stroke="#FF8A34" stroke-width="6" stroke-linecap="round" opacity="0.85" transform="translate(20,34)">
    <line x1="0" y1="0" x2="40" y2="0"/>
    <line x1="0" y1="20" x2="40" y2="20"/>
    <line x1="0" y1="40" x2="40" y2="40"/>
  </g>

  <!-- plate on the right with thin black border -->
  <circle cx="82" cy="64" r="28" fill="white" stroke="black" stroke-width="2"/>

  <!-- fork (green, 3 prongs) -->
  <g transform="translate(74,46)">
    <!-- handle -->
    <rect x="0" y="10" width="4" height="20" rx="1" fill="#5DBE6D"/>
    <!-- prongs -->
    <rect x="-4" y="0" width="2" height="12" rx="1" fill="#5DBE6D"/>
    <rect x="0" y="0" width="2" height="12" rx="1" fill="#5DBE6D"/>
    <rect x="4" y="0" width="2" height="12" rx="1" fill="#5DBE6D"/>
  </g>

  <!-- knife (green, blade shape) -->
  <g transform="translate(88,46)">
    <!-- handle -->
    <rect x="0" y="14" width="4" height="16" rx="1" fill="#5DBE6D"/>
    <!-- blade -->
    <path d="M4 0 Q12 12 4 28 Z" fill="#5DBE6D"/>
  </g>

  <!-- pencil (orange, across bottom) -->
  <g transform="translate(34,94) rotate(-12)">
    <!-- body -->
    <rect x="0" y="0" width="56" height="8" rx="2" fill="#FF8A34"/>
    <!-- tip -->
    <polygon points="56,0 64,4 56,8" fill="#D97706"/>
    <polygon points="64,4 68,4 64,0" fill="#0F172A"/>
  </g>
</svg>