<svg xmlns="http://www.w3.org/2000/svg" width="800" height="200" viewBox="0 0 800 200" role="img" aria-labelledby="title desc">
  <title id="title">MyRecipes logo</title>
  <desc id="desc">A warm orange recipe book with spoon &amp; fork and a green leaf, followed by the wordmark "MyRecipes".</desc>

  <g transform="translate(20,20)">
    <rect x="0" y="0" width="160" height="140" rx="12" fill="#FFEDD5" stroke="#FFB86C" stroke-width="6"/>
    <g fill="none" stroke="#FFB86C" stroke-width="2" opacity="0.35" transform="translate(18,22)">
      <path d="M0 6 H110" />
      <path d="M0 18 H110" />
      <path d="M0 30 H110" />
    </g>
    <path d="M110 22c8 0 14 6 14 14 0 6-4 10-9 13l-3 10c0 4-2 8-6 10l-14-2c0-4 4-10 6-15 2-6 4-10 3-20-2-12 2-10 9-10z"
          fill="#FF8A34" transform="translate(-10,0)"/>
    <g transform="translate(96,18) scale(0.9)">
      <path d="M28 6c2-1 5-1 7 1 2 2 2 6 1 8l-3 14c-1 3-3 5-6 6l-6-1c2-4 5-9 6-15 1-8 0-17 1-19z" fill="#FF8A34" opacity="0.95"/>
      <rect x="10" y="32" width="28" height="6" rx="2" fill="#FF8A34" opacity="0.9" transform="translate(-4,2) rotate(-8 24 35)"/>
    </g>
    <path d="M34 112c14-6 28-16 36-28 6-9 4-18-8-22-14-5-30 6-37 18-5 9-2 16 9 20z"
          fill="#5DBE6D" transform="translate(6,2) rotate(-12 44 100)"/>
  </g>

  <g transform="translate(210,92)">
    <text x="0" y="0" font-family="Segoe UI, Roboto, Helvetica, Arial, sans-serif" font-weight="700" font-size="56" fill="#0F172A">My</text>
    <text x="98" y="0" font-family="Segoe UI, Roboto, Helvetica, Arial, sans-serif" font-weight="400" font-size="56" fill="#0F172A">Recipes</text>
    <text x="0" y="40" font-family="Segoe UI, Roboto, Helvetica, Arial, sans-serif" font-size="12" fill="#475569" opacity="0.9">
      Your favourite recipes &#8212; organised, shared, cooked.
    </text>
  </g>
</svg>